# xmcd CD database file
#
# Track frame offsets:
#	182
#	17720
#	30467
#	66037
#	85952
#	110382
#	140945
#	161192
#	188460
#	210095
#
# Disc length: 3097 seconds
#
# Revision: 0
# Processed by: cddbd v1.5.1PL2 Copyright (c) Steve Scherf et al.
# Submitted via: CDex 1.70beta1
#
DISCID=7e0c170a
DTITLE=Swing Music Box - Swing Music Box
DYEAR=1995
DGENRE=Jazz
TTITLE0=It don't mean a thing
TTITLE1=Cat blues
TTITLE2=Sweet  Georgia Brown
TTITLE3=Softly as in a morning sunrise
TTITLE4=Tenor madness
TTITLE5=Georgia on my mind
TTITLE6=The Preacher
TTITLE7=Lester leaps in
TTITLE8=Small bridge
TTITLE9=Swingin'the blues
EXTD=YEAR: 1995
EXTT0=
EXTT1=
EXTT2=
EXTT3=
EXTT4=
EXTT5=
EXTT6=
EXTT7=
EXTT8=
EXTT9=
PLAYORDER=
